<?xml version="1.0" encoding="utf-8"?><svg version="1.1" id="Layer_1" xmlns="http://www.w3.org/2000/svg" xmlns:xlink="http://www.w3.org/1999/xlink" x="0px" y="0px" viewBox="0 0 122.88 100.47" style="enable-background:new 0 0 122.88 100.47" xml:space="preserve"><style type="text/css">.st0{fill-rule:evenodd;clip-rule:evenodd;fill:#EA5252;}</style><g><path class="st0" d="M120.82,57.26c-0.43-0.35-0.92-0.58-1.44-0.68c-3.12,3.11-6.92,6.38-10.3,8.58c-1.56,1.04-3.52,1.55-4.82,1.55 c-2.99,0-4.29-2.85-4.68-7.38c-0.52-6.09-0.87-13.37-0.87-24.64c0-11.55-2.62-19.41-9.61-20.02c-0.3-0.03-0.59-0.04-0.91-0.04 c-4.29,0-6.37,2.2-9.1,7.77c-2.34,4.79-5.98,11.78-12.73,24.99c-5.85,11.39-12.34,21.49-17.93,28.49 c-1.56,1.94-2.79,3.27-3.94,4.03c-0.77,0.51-1.51,0.76-2.29,0.76c-2.21,0-3.82-1.86-4.35-6.19c-0.13-1.03-0.2-2.2-0.2-3.52 c0-8.93,3.38-23.43,9.22-44.8C51.16,10.62,49.34,0,39.98,0c-0.02,0-0.03,0-0.04,0c-0.02,0-0.04,0-0.06,0l-0.01,0 C37.75,0.03,36,0.79,34.3,2.13c-1.67,1.31-3.33,4.15-4.89,7.95c-1.75,4.29-12.42,25.69-29.4,36.71c-0.2,4.19,2.17,8.38,6.98,8.83 c4.38,0.42,7.48-1.43,11.48-4.12c-0.3,1.34-0.58,2.59-0.83,3.73c-0.3,1.35-0.55,2.51-0.76,3.45c-0.3,1.4-0.5,2.3-0.56,2.55 c-0.56,2.55-0.95,4.97-1.21,7.27c-2.39,21.4,7.52,31.96,19.14,31.96c1.94,0,3.86-0.23,5.78-0.72c12.8-3.24,25.12-17.93,39.7-51.72 c-0.22,3.68-0.24,7.11-0.09,10.3c0.96,19.37,8.62,25.18,19.45,25.18c8.19,0,15.85-4.27,19.75-9.58c2.86-3.76,4.03-7.9,4.03-11.14 C122.88,60.28,122.08,58.28,120.82,57.26L120.82,57.26z"/></g></svg>