<svg width="115" height="44" viewBox="0 0 115 44" fill="none" xmlns="http://www.w3.org/2000/svg">
<path d="M59.2897 17.7937H61.4415V13.9549H62.9679V12.4034H57.7633V13.9549H59.2897V17.7937Z" fill="#6A6F73"/>
<path d="M64.5539 17.7937L65.6507 14.5702L66.7458 17.7937H68.8507L66.7876 12.4034H64.5121L62.4506 17.7937H64.5539Z" fill="#6A6F73"/>
<path d="M69.8605 17.7937H72.0123V13.9549H73.5387V12.4034H68.3341V13.9549H69.8605V17.7937Z" fill="#6A6F73"/>
<path d="M75.1254 17.7937L76.2222 14.5702L77.3173 17.7937H79.4222L77.3607 12.4034H75.0836L73.0221 17.7937H75.1254Z" fill="#6A6F73"/>
<path d="M95.7752 21.6474C96.041 22.2577 96.3921 22.9181 96.7415 23.5066L98.1493 25.8774H99.1691V20.4871H98.258V22.368C98.258 23.1923 98.2764 23.8861 98.3466 24.6017L98.3282 24.6067C98.0791 24.0215 97.7664 23.3946 97.4103 22.801L96.0176 20.4871H94.8924V25.8774H95.8019V23.9496C95.8019 23.0652 95.7885 22.353 95.7501 21.6524L95.7752 21.6474Z" fill="#6A6F73"/>
<path d="M90.8882 24.3542H92.6002L93.0884 25.8774H94.1451L92.3946 20.4871H91.1423L89.4119 25.8774H90.4301L90.8882 24.3542ZM91.465 22.2794C91.5603 21.9584 91.6422 21.5856 91.7208 21.2696H91.7375C91.8194 21.5822 91.908 21.95 92.01 22.2827L92.4347 23.6119H91.0453L91.465 22.2794Z" fill="#6A6F73"/>
<path d="M74.8412 25.1467C74.3396 25.1467 73.8564 24.9862 73.5387 24.8023L73.3197 25.6182C73.614 25.7988 74.2058 25.9626 74.776 25.9626C76.167 25.9626 76.8207 25.2103 76.8207 24.3425C76.8207 23.5684 76.371 23.097 75.4347 22.7408C74.7158 22.4666 74.4031 22.271 74.4031 21.8581C74.4031 21.5404 74.669 21.2094 75.2942 21.2094C75.8008 21.2094 76.177 21.3632 76.371 21.4652L76.6067 20.671C76.3258 20.5289 75.8978 20.4052 75.3143 20.4052C74.1456 20.4052 73.4067 21.0706 73.4067 21.9534C73.4067 22.7258 73.9751 23.204 74.8662 23.52C75.5467 23.7674 75.8209 24.0082 75.8209 24.4144C75.8209 24.8525 75.4681 25.1467 74.8412 25.1467Z" fill="#6A6F73"/>
<path d="M60.6901 21.2161C61.1298 21.2161 61.4893 21.313 61.7401 21.4267L61.9541 20.6426C61.7534 20.5339 61.297 20.4035 60.6483 20.4035C59.0015 20.4035 57.7626 21.4735 57.7626 23.2458C57.7626 24.8859 58.8042 25.9626 60.5146 25.9626C61.1666 25.9626 61.6799 25.8339 61.9123 25.7168L61.7501 24.9411C61.4909 25.0581 61.0746 25.1367 60.6751 25.1367C59.4897 25.1367 58.7992 24.3843 58.7992 23.1956C58.7992 21.9015 59.59 21.2161 60.6901 21.2161Z" fill="#6A6F73"/>
<path d="M88.2114 25.8774V21.3147H89.7646V20.4871H85.6868V21.3147H87.2267V25.8774H88.2114Z" fill="#6A6F73"/>
<path d="M107.89 20.4871L107.241 21.8681C107.057 22.2593 106.908 22.5937 106.775 22.9381H106.758C106.611 22.5737 106.47 22.266 106.288 21.8698L105.646 20.4871H104.519L106.225 23.6336V25.8774H107.209V23.6069L109 20.4888H107.89V20.4871Z" fill="#6A6F73"/>
<path d="M64.808 20.4002C63.2866 20.4002 62.2416 21.5688 62.2416 23.224C62.2416 24.8023 63.2047 25.9676 64.7294 25.9676H64.7378C66.2141 25.9676 67.3092 24.9344 67.3092 23.1287C67.3059 21.5872 66.3796 20.4002 64.808 20.4002ZM64.7696 25.1785H64.7612C63.8199 25.1785 63.2699 24.2723 63.2732 23.2006C63.2715 22.1256 63.7898 21.1876 64.7729 21.1876C65.756 21.1876 66.2609 22.149 66.2609 23.1655C66.2592 24.2924 65.7209 25.1785 64.7696 25.1785Z" fill="#6A6F73"/>
<path d="M102.944 21.2161C103.384 21.2161 103.744 21.313 103.994 21.4267L104.208 20.6426C104.008 20.5339 103.551 20.4035 102.903 20.4035C101.256 20.4035 100.017 21.4735 100.017 23.2458C100.017 24.8859 101.058 25.9626 102.769 25.9626C103.421 25.9626 103.934 25.8355 104.167 25.7168L104.004 24.9411C103.745 25.0581 103.329 25.1367 102.929 25.1367C101.744 25.1367 101.053 24.3843 101.053 23.1956C101.053 21.9015 101.844 21.2161 102.944 21.2161Z" fill="#6A6F73"/>
<path d="M84.0166 20.4871H83.0319V25.8774H86.2336V25.0514H84.0166V20.4871Z" fill="#6A6F73"/>
<path d="M81.9117 23.5668V20.4888H80.9269V23.632C80.9269 24.6886 80.5006 25.1752 79.7917 25.1752C79.1246 25.1752 78.6866 24.6853 78.6866 23.632V20.4888H77.7018V23.5735C77.7018 25.2688 78.5127 25.9693 79.7549 25.9693C81.0573 25.9676 81.9117 25.227 81.9117 23.5668Z" fill="#6A6F73"/>
<path d="M72.4269 20.4871H71.5157V22.368C71.5157 23.1923 71.5341 23.8861 71.6044 24.6017L71.586 24.6067C71.3368 24.0215 71.0242 23.3946 70.6681 22.801L69.2754 20.4871H68.1502V25.8774H69.0614V23.9496C69.0614 23.0652 69.048 22.353 69.0095 21.6541L69.0346 21.6491C69.3005 22.2593 69.6516 22.9197 70.001 23.5083L71.4087 25.879H72.4286V20.4871H72.4269Z" fill="#6A6F73"/>
<path d="M76.6401 28.5725H75.6554V33.9627H76.6401V28.5725Z" fill="#6A6F73"/>
<path d="M68.8858 31.4348V31.413C69.3891 31.2341 69.8572 30.766 69.8572 30.0772C69.8572 29.6191 69.69 29.2479 69.3974 29.0038C69.0363 28.7029 68.4143 28.5725 67.7472 28.5725C67.0801 28.5725 66.6388 28.6193 66.2659 28.6878V33.9627H67.2356V31.7641H67.7272C68.2823 31.7775 68.5364 32.0032 68.6902 32.7004C68.839 33.3658 68.9677 33.8072 69.0497 33.9627H70.0528C69.9458 33.7537 69.8004 33.1401 69.6315 32.4714C69.4977 31.9514 69.2737 31.5819 68.8858 31.4348ZM67.8141 31.0469H67.2356V29.3566C67.3343 29.3315 67.5332 29.3081 67.8425 29.3081C68.4745 29.3098 68.8841 29.5823 68.8841 30.1658C68.8841 30.6975 68.4762 31.0469 67.8141 31.0469Z" fill="#6A6F73"/>
<path d="M73.2411 31.0369C73.0322 31.6906 72.8365 32.3493 72.6928 32.9846H72.676C72.5356 32.3326 72.3517 31.7023 72.1477 31.0218L71.4121 28.5708H70.3387L72.0825 33.961H73.2111L75.0736 28.5708H74.0253L73.2411 31.0369Z" fill="#6A6F73"/>
<path d="M83.4532 31.5702H85.4846V30.7677H83.4532V29.3817H85.6049V28.5725H82.4684V33.961H85.7236V33.1518H83.4532V31.5702Z" fill="#6A6F73"/>
<path d="M80.4137 29.2998C80.8534 29.2998 81.2128 29.3967 81.4636 29.5104L81.6776 28.7263C81.477 28.6176 81.0206 28.4872 80.3719 28.4872C78.725 28.4872 77.4861 29.5572 77.4861 31.3295C77.4861 32.9696 78.5277 34.0463 80.2381 34.0463C80.8902 34.0463 81.4034 33.9193 81.6358 33.8005L81.4736 33.0248C81.2128 33.1418 80.7982 33.2204 80.3986 33.2204C79.2132 33.2204 78.5227 32.468 78.5227 31.2793C78.5227 29.9852 79.3135 29.2998 80.4137 29.2998Z" fill="#6A6F73"/>
<path d="M59.8776 30.8245C59.157 30.5503 58.846 30.3547 58.846 29.9418C58.846 29.6241 59.1118 29.2931 59.7354 29.2931C60.242 29.2931 60.6182 29.4469 60.8122 29.5489L61.0479 28.7547C60.767 28.6126 60.339 28.4889 59.7555 28.4889C58.5868 28.4889 57.8479 29.1543 57.8479 30.0371C57.8479 30.8095 58.4163 31.2877 59.3074 31.6036C59.9879 31.8511 60.2621 32.0918 60.2621 32.4981C60.2621 32.9395 59.911 33.2338 59.2824 33.2338C58.7808 33.2338 58.2976 33.0733 57.9799 32.8894L57.7609 33.7052C58.0552 33.8858 58.647 34.0497 59.2172 34.0497C60.6082 34.0497 61.2619 33.2973 61.2619 32.4296C61.2636 31.6521 60.8138 31.1807 59.8776 30.8245Z" fill="#6A6F73"/>
<path d="M63.1328 31.5702H65.1641V30.7677H63.1328V29.3817H65.2862V28.5725H62.148V33.961H65.4049V33.1518H63.1328V31.5702Z" fill="#6A6F73"/>
<path d="M88.4656 30.8245C87.7467 30.5503 87.434 30.3547 87.434 29.9418C87.434 29.6241 87.6999 29.2931 88.3235 29.2931C88.8301 29.2931 89.2062 29.4469 89.4002 29.5489L89.6359 28.7547C89.355 28.6126 88.927 28.4889 88.3435 28.4889C87.1749 28.4889 86.4359 29.1543 86.4359 30.0371C86.4359 30.8095 87.0043 31.2877 87.8955 31.6036C88.5759 31.8511 88.8501 32.0918 88.8501 32.4981C88.8501 32.9395 88.499 33.2338 87.8704 33.2338C87.3688 33.2338 86.8856 33.0733 86.568 32.8894L86.3489 33.7052C86.6432 33.8858 87.2351 34.0497 87.8052 34.0497C89.1962 34.0497 89.8499 33.2973 89.8499 32.4296C89.8516 31.6521 89.4019 31.1807 88.4656 30.8245Z" fill="#6A6F73"/>
<path d="M7 16.09C7 13.649 8.58664 12.1844 10.9056 12.1844V8.03472C10.9056 6.81422 10.0914 6 8.95279 6C7.81422 6 7 6.81422 7 8.03472V16.09V16.09Z" fill="#6A6F73"/>
<path d="M13.9167 34.1115C14.8931 34.1115 15.7876 33.9494 16.6018 33.6635C12.4922 34.3556 10.9056 31.5485 10.9056 28.3752V15.3577H15.6655C16.764 15.3577 17.4963 14.7073 17.4963 13.771C17.4963 12.8348 16.764 12.1844 15.6655 12.1844H10.9056C8.58664 12.1844 7 13.649 7 16.09V27.2768C7 31.7525 9.56304 34.1115 13.9167 34.1115Z" fill="#6A6F73"/>
<path d="M16.6018 33.6634C18.2286 33.0532 19.4909 31.9146 20.3034 30.2461L18.4727 26.9507C17.6584 29.3917 16.2356 30.6941 14.2828 30.6941C12.2481 30.6941 10.9056 29.5138 10.9056 26.8287V28.3752C10.9056 31.5485 12.4922 34.3556 16.6018 33.6634Z" fill="#6A6F73"/>
<path d="M33.3209 33.0131C24.0451 34.3957 21.116 29.4335 21.116 23.0468C21.116 18.4089 23.9632 15.2356 28.0728 15.2356C29.5775 15.2356 30.8398 15.5617 31.9784 16.09C32.5067 16.3341 32.9548 16.416 33.361 16.416C34.3374 16.416 34.9878 15.7656 34.9878 14.7892C34.9878 14.179 34.6217 13.5687 33.7673 13.1625C32.2208 12.39 30.2279 11.942 28.0711 11.942C21.6426 11.942 17.2087 16.4979 17.2087 23.1287C17.2087 29.6375 21.4804 34.1533 28.3553 34.1533C30.2295 34.1517 31.8563 33.7855 33.3209 33.0131Z" fill="#6A6F73"/>
<path d="M17.212 23.1271C17.212 16.4963 21.646 11.9403 28.0745 11.9403C30.2312 11.9403 32.2241 12.3884 33.7707 13.1608C34.625 13.5671 34.9912 14.1773 34.9912 14.7876C34.9912 15.764 34.3408 16.4143 33.3644 16.4143C32.9581 16.4143 32.51 16.3324 31.9817 16.0883C30.599 15.4379 29.2565 15.234 28.0761 15.234C22.4184 15.2356 17.212 18.8152 17.212 23.1271Z" fill="#6A6F73"/>
<path d="M41.4982 13.2427C41.1321 13.6089 40.9281 14.0569 40.9281 14.5853C40.9281 15.9278 42.1887 17.9207 45.1179 19.9554L48.4534 22.2744C50.8944 23.9831 51.8708 25.6099 51.8708 28.0508C51.8708 29.7997 51.1786 31.3061 50.04 32.3627C50.4463 31.9966 50.6904 31.5084 50.6904 30.858C50.6904 29.4335 49.2659 27.1965 46.2147 25.0815L43.1635 22.9666C40.6004 21.1759 39.5839 19.509 39.5839 17.2302C39.5839 15.8877 40.0721 14.6672 40.8863 13.7727C41.092 13.5671 41.2943 13.4049 41.4982 13.2427Z" fill="#6A6F73"/>
<path d="M38.8549 31.5084C38.8549 32.1587 39.181 32.6887 40.0353 33.095C41.2157 33.6651 43.1267 34.1533 44.8354 34.1533C46.9921 34.1533 48.7811 33.5029 50.0434 32.3627C50.4497 31.9966 50.6938 31.5084 50.6938 30.858C50.6938 29.4335 49.2693 27.1965 46.218 25.0815C47.6007 26.0579 48.1708 26.8721 48.1708 28.0508C48.1708 29.7997 46.7882 30.98 44.7936 30.98C42.8809 30.98 41.2541 30.0036 40.3597 30.0036C39.4652 30.0036 38.8549 30.6139 38.8549 31.5084Z" fill="#6A6F73"/>
<path d="M45.1196 19.9554C43.8172 19.0192 43.2487 18.1648 43.2487 17.1483C43.2487 15.8459 44.3071 15.0333 45.8118 15.0333C47.7244 15.0333 48.6189 15.9278 49.7575 15.9278C50.652 15.9278 51.2622 15.3176 51.2622 14.4231C51.2622 13.7727 50.9362 13.2427 50.0818 12.8364C48.7393 12.1861 47.2747 11.942 45.6881 11.942C44.0195 11.942 42.5549 12.4302 41.4982 13.2444C41.1321 13.6105 40.9281 14.0586 40.9281 14.5869C40.9281 15.9278 42.1904 17.9207 45.1196 19.9554Z" fill="#6A6F73"/>
<path d="M21.1176 23.0468C21.1176 29.4335 24.0468 34.3974 33.3226 33.0131C36.2919 31.4666 38.4085 28.3351 39.8715 23.535L40.7258 20.7279C39.9116 19.6695 39.5872 18.4909 39.5872 17.2286C39.5872 15.886 40.0754 14.6655 40.8897 13.771C39.6692 15.0735 38.6526 16.9845 37.8384 19.6695L36.9021 22.7609C35.2336 28.213 32.5903 30.8162 28.4807 30.8162C23.9649 30.8162 21.1176 27.6847 21.1176 23.0468Z" fill="#6A6F73"/>
</svg>
